<?xml version="1.0" standalone="no"?><!DOCTYPE svg PUBLIC "-//W3C//DTD SVG 1.1//EN" "http://www.w3.org/Graphics/SVG/1.1/DTD/svg11.dtd"><svg t="1583421394194" class="icon" viewBox="0 0 1024 1024" version="1.1" xmlns="http://www.w3.org/2000/svg" p-id="2982" width="32" height="32" xmlns:xlink="http://www.w3.org/1999/xlink"><defs><style type="text/css"></style></defs><path d="M543.611871 612.913548c-25.765161 0-47.599484 29.167484-47.599484 63.851355 0 34.584774 21.80129 63.884387 47.599484 63.884387s47.632516-29.167484 47.632516-63.884387c0-34.683871-21.80129-63.851355-47.632516-63.851355z" fill="#DD0717" p-id="2983"></path><path d="M820.455226 182.205935a37.062194 37.062194 0 0 0-60.019613 12.585291 1561.864258 1561.864258 0 0 0-28.275613 80.929032 547.410581 547.410581 0 0 0-41.059097-65.106581C634.88 133.912774 557.881806 68.806194 448.743226 5.681548a37.921032 37.921032 0 0 0-35.080258-1.222193c-11.065806 5.285161-18.630194 15.921548-20.116645 28.143484-15.128774 133.285161-43.041032 268.288-138.537291 363.420903-4.195097-8.158968-8.423226-16.185806-12.651355-24.212645-11.164903-21.008516-21.570065-40.629677-28.275612-57.575226a36.599742 36.599742 0 0 0-32.239484-22.957419 36.830968 36.830968 0 0 0-34.617807 19.489032l-7.663484 14.600258c-46.905806 89.054968-110.88929 211.076129-120.567742 314.368-20.083613 218.739613 182.668387 356.219871 393.546323 379.078193 46.245161 5.053935 92.754581 6.177032 139.264 3.567484 165.821935-9.612387 367.252645-92.985806 435.100903-298.050064 43.899871-133.020903 26.756129-354.766452-166.48258-542.12542zM388.360258 775.729548c0 17.275871-14.402065 31.380645-32.140387 31.380646a31.777032 31.777032 0 0 1-32.107355-31.380646v-71.283613l-66.229677 0.990968v72.010323c0 17.308903-14.402065 31.380645-32.140387 31.380645a31.777032 31.777032 0 0 1-32.107355-31.380645v-192.677161c0-17.308903 14.369032-31.380645 32.107355-31.380646 17.738323 0 32.140387 14.071742 32.140387 31.380646v57.905548l66.229677-0.990968V583.019355c0-17.275871 14.369032-31.380645 32.107355-31.380645 17.738323 0 32.140387 14.104774 32.140387 31.380645v192.710193z m155.251613 27.548904c-61.638194 0-111.748129-56.815484-111.748129-126.612646 0-69.797161 50.109935-126.612645 111.748129-126.612645 61.671226 0 111.880258 56.815484 111.880258 126.612645-0.132129 69.764129-50.209032 126.612645-111.880258 126.612646z m291.212387-183.560258h-40.794839v154.260645c0 17.308903-14.369032 31.380645-32.107354 31.380645a31.777032 31.777032 0 0 1-32.140388-31.380645v-154.260645h-40.794838a31.644903 31.644903 0 0 1-22.561033-9.149936 32.305548 32.305548 0 0 1-9.579354-22.362839c0-17.275871 14.402065-31.380645 32.140387-31.380645h145.738322c17.738323 0 32.107355 14.104774 32.107355 31.380645a31.777032 31.777032 0 0 1-9.546322 22.362839 30.951226 30.951226 0 0 1-22.461936 9.149936z" fill="#DD0717" p-id="2984"></path></svg>