<?xml version="1.0" standalone="no"?><!DOCTYPE svg PUBLIC "-//W3C//DTD SVG 1.1//EN" "http://www.w3.org/Graphics/SVG/1.1/DTD/svg11.dtd"><svg t="1585209091232" class="icon" viewBox="0 0 1024 1024" version="1.1" xmlns="http://www.w3.org/2000/svg" p-id="2231" width="12" height="12" xmlns:xlink="http://www.w3.org/1999/xlink"><defs><style type="text/css"></style></defs><path d="M718.255924 354.274882 461.042654 611.488152l-155.298578-155.298578c-9.706161-9.706161-24.265403-9.706161-33.971564 0-9.706161 9.706161-9.706161 24.265403 0 33.971564l172.28436 172.28436c9.706161 9.706161 24.265403 9.706161 33.971564 0l274.199052-274.199052c9.706161-9.706161 9.706161-24.265403 0-33.971564C742.521327 344.56872 727.962085 344.56872 718.255924 354.274882z" p-id="2232"></path><path d="M948.777251 196.549763c0-31.545024-19.412322-58.236967-48.530806-67.943128-7.279621-2.42654-14.559242-4.853081-21.838863-4.853081 0 0 0 0 0 0 0 0 0 0-2.42654 0 0 0 0 0 0 0 0 0 0 0 0 0-138.312796-4.853081-254.78673-46.104265-315.450237-104.341232 0 0 0 0-2.42654 0C545.971564 7.279621 531.412322 0 512 0c-16.985782 0-33.971564 7.279621-46.104265 16.985782 0 0-2.42654 0-2.42654 2.42654C402.805687 77.649289 288.758294 118.900474 148.018957 123.753555c0 0 0 0 0 0 0 0 0 0 0 0 0 0-2.42654 0-2.42654 0 0 0 0 0 0 0C138.312796 123.753555 131.033175 126.180095 123.753555 128.606635 94.635071 138.312796 75.222749 165.004739 75.222749 196.549763c0 0 0 0 0 0l0 0L75.222749 582.369668c0 121.327014 245.080569 439.203791 436.777251 439.203791 191.696682 0 436.777251-320.303318 436.777251-439.203791L948.777251 196.549763 948.777251 196.549763C948.777251 196.549763 948.777251 196.549763 948.777251 196.549763zM900.246445 266.919431l0 315.450237c0 94.635071-225.668246 390.672986-388.246445 390.672986C349.421801 975.469194 123.753555 677.004739 123.753555 582.369668L123.753555 266.919431l0-72.796209c0-14.559242 9.706161-24.265403 24.265403-24.265403l2.42654 0C269.345972 167.43128 373.687204 135.886256 446.483412 89.781991c16.985782-9.706161 33.971564-21.838863 46.104265-31.545024C497.440758 53.383886 504.720379 48.530806 512 48.530806c7.279621 0 14.559242 4.853081 19.412322 9.706161 0 0 19.412322 16.985782 50.957346 33.971564 0 0 0 0 0 0 72.796209 46.104265 174.7109 75.222749 291.184834 77.649289l2.42654 0c14.559242 0 24.265403 9.706161 24.265403 24.265403L900.246445 266.919431z" p-id="2233"></path></svg>