<?xml version="1.0" standalone="no"?><!DOCTYPE svg PUBLIC "-//W3C//DTD SVG 1.1//EN" "http://www.w3.org/Graphics/SVG/1.1/DTD/svg11.dtd"><svg t="1582716011059" class="icon" viewBox="0 0 1024 1024" version="1.1" xmlns="http://www.w3.org/2000/svg" p-id="2092" width="32" height="32" xmlns:xlink="http://www.w3.org/1999/xlink"><defs><style type="text/css"></style></defs><path d="M512 10.459429c90.989714 0 174.884571 22.381714 251.757714 67.291428a499.273143 499.273143 0 0 1 182.491429 182.491429c44.909714 76.8 67.291429 160.768 67.291428 251.757714a487.497143 487.497143 0 0 1-95.670857 294.838857c-63.780571 87.332571-146.139429 147.748571-247.222857 181.248-11.702857 2.194286-20.48 0.658286-26.112-4.608a25.6 25.6 0 0 1-8.484571-19.529143l0.365714-49.956571c0.219429-32.036571 0.292571-61.293714 0.292571-87.844572 0-42.276571-11.264-73.142857-33.938285-92.745142 24.868571-2.633143 47.104-6.582857 66.925714-11.702858 19.821714-5.266286 40.228571-13.750857 61.44-25.6 21.065143-11.702857 38.765714-26.185143 52.882286-43.373714 14.116571-17.188571 25.6-40.082286 34.596571-68.534857 8.923429-28.525714 13.385143-61.293714 13.385143-98.304 0-51.785143-17.188571-96.694857-51.565714-134.582857 16.091429-39.570286 14.336-83.968-5.266286-133.12-12.141714-3.949714-29.842286-1.609143-52.882286 7.094857-23.04 8.777143-43.154286 18.285714-60.050285 28.745143l-24.868572 15.725714A463.506286 463.506286 0 0 0 512 252.635429c-43.154286 0-84.845714 5.705143-125.366857 16.969142a579.510857 579.510857 0 0 0-27.794286-17.554285 391.533714 391.533714 0 0 0-54.491428-25.161143c-24.868571-9.801143-43.373714-12.726857-55.588572-8.777143-19.529143 49.152-21.211429 93.549714-5.12 133.12a193.462857 193.462857 0 0 0-51.638857 134.582857c0 37.010286 4.461714 69.632 13.385143 98.011429 8.923429 28.233143 20.333714 51.126857 34.304 68.534857 13.897143 17.408 31.451429 31.963429 52.589714 43.739428 21.065143 11.702857 41.545143 20.260571 61.366857 25.453715 19.748571 5.266286 42.130286 9.142857 66.925715 11.702857-16.969143 15.725714-27.648 38.180571-32.036572 67.291428a129.462857 129.462857 0 0 1-29.330286 9.801143c-10.459429 2.194286-22.893714 3.291429-37.302857 3.291429-14.336 0-28.525714-4.681143-42.715428-14.043429a115.126857 115.126857 0 0 1-36.278857-40.813714 105.325714 105.325714 0 0 0-31.670858-33.938286c-12.8-8.777143-23.625143-13.897143-32.329142-15.725714l-13.019429-1.901714a42.422857 42.422857 0 0 0-19.017143 2.925714c-3.437714 1.974857-4.534857 4.388571-3.218286 7.460571a35.986286 35.986286 0 0 0 5.851429 9.216 47.762286 47.762286 0 0 0 8.557714 7.826286l4.534857 3.218286c9.581714 4.388571 19.017143 12.653714 28.452572 24.868571 9.362286 12.141714 16.164571 23.259429 20.48 33.28l6.582857 14.994286c5.705143 16.530286 15.213714 29.988571 28.745143 40.228571 13.531429 10.24 28.086857 16.749714 43.739428 19.529143 15.652571 2.852571 30.793143 4.388571 45.348572 4.608 14.628571 0.219429 26.697143-0.585143 36.278857-2.267428l15.067429-2.633143a5926.765714 5926.765714 0 0 0 0.658285 93.403428 25.6 25.6 0 0 1-8.557714 19.529143c-5.632 5.266286-14.336 6.802286-26.112 4.608-100.937143-33.499429-183.369143-93.915429-247.222857-181.248A487.497143 487.497143 0 0 1 10.532571 512c0-90.989714 22.381714-174.884571 67.291429-251.757714a499.273143 499.273143 0 0 1 182.491429-182.491429A490.642286 490.642286 0 0 1 512 10.386286zM200.484571 730.697143c1.316571-3.072-0.219429-5.632-4.534857-7.826286-4.388571-1.316571-7.241143-0.877714-8.484571 1.316572-1.316571 2.998857 0.146286 5.632 4.534857 7.826285 3.949714 2.633143 6.729143 2.194286 8.484571-1.316571z m20.260572 22.235428c3.072-2.194286 2.633143-5.705143-1.316572-10.459428-4.388571-3.949714-7.826286-4.608-10.459428-1.974857-3.072 2.194286-2.633143 5.632 1.316571 10.459428 4.388571 4.388571 7.826286 4.973714 10.459429 1.974857z m19.602286 29.330286c3.876571-2.998857 3.876571-7.168 0-12.434286-3.510857-5.632-7.241143-6.875429-11.117715-3.876571-3.949714 2.194286-3.949714 6.144 0 11.702857 3.949714 5.705143 7.606857 7.314286 11.117715 4.608z m27.428571 27.428572c3.437714-3.437714 2.56-7.606857-2.633143-12.434286-5.193143-5.12-9.581714-5.851429-13.092571-1.901714-3.876571 3.510857-2.998857 7.606857 2.633143 12.434285 5.266286 5.193143 9.581714 5.851429 13.092571 1.901715z m37.229714 16.384c1.316571-4.827429-1.536-8.265143-8.484571-10.459429-6.582857-1.755429-10.678857-0.219429-12.434286 4.534857-1.755429 4.827429 1.097143 8.045714 8.484572 9.801143 6.582857 2.633143 10.678857 1.316571 12.434285-3.876571z m41.106286 3.218285c0-5.632-3.657143-8.045714-11.117714-7.168-6.948571 0-10.459429 2.413714-10.459429 7.168 0 5.705143 3.730286 8.045714 11.117714 7.168 7.021714 0 10.459429-2.340571 10.459429-7.168z m37.888-6.509714c-0.877714-4.754286-4.754286-6.729143-11.702857-5.851429-7.021714 1.316571-10.093714 4.534857-9.216 9.801143 0.877714 5.193143 4.827429 6.948571 11.776 5.193143 6.948571-1.755429 10.020571-4.754286 9.142857-9.142857z" fill="#000000" p-id="2093"></path></svg>