<?xml version="1.0" standalone="no"?><!DOCTYPE svg PUBLIC "-//W3C//DTD SVG 1.1//EN" "http://www.w3.org/Graphics/SVG/1.1/DTD/svg11.dtd"><svg t="1582783826860" class="icon" viewBox="0 0 1024 1024" version="1.1" xmlns="http://www.w3.org/2000/svg" p-id="2282" width="32" height="32" xmlns:xlink="http://www.w3.org/1999/xlink"><defs><style type="text/css"></style></defs><path d="M680.059038 1022.752285c90.95845 0 164.07457-34.187401 164.07457-76.110638s-73.615207-77.10881-164.07457-77.108809-164.07457 33.688315-164.074571 76.110637c0 42.297551 73.615207 77.10881 164.074571 77.10881z m-347.987816 0c90.459364 0 164.07457-34.187401 164.074571-76.110638s-73.615207-77.10881-164.074571-77.108809-164.07457 33.688315-164.07457 76.110637c0 42.297551 73.615207 77.10881 164.07457 77.10881z m0 0" fill="#F5B824" p-id="2283"></path><path d="M161.258989 723.799683c48.660899 147.479956 187.656391 246.174242 342.872182 243.304496h3.119289c155.340563 2.869745 294.336055-95.82454 342.872182-243.304496 51.15633 107.802608 51.15633 85.842817 61.387596 77.10881 85.343731-136.999147-39.80212-294.336055-39.80212-294.336055l-34.187401-118.53296C834.401428 0.623858 522.597359 0.623858 506.252287 0.623858c-16.345071 0-328.149141 0-328.149141 387.41562l-37.306689 118.53296s-125.270623 158.459851-40.925064 294.336055c9.856951 6.612891 10.356038 30.693798 61.387596-77.10881z m0 0" fill="#121213" p-id="2284"></path><path d="M586.979471 348.112587c36.807603 0 66.378457-41.923236 66.378458-93.578653s-29.695626-93.578652-66.378458-93.578652c-36.807603 0-66.378457 43.919581-66.378457 95.075911s29.570854 92.081394 66.378457 92.081394z m-170.687462 0c36.807603 0 66.378457-40.925064 66.378458-91.956623s-29.695626-93.578652-66.378458-93.578652c-36.807603 0-66.378457 42.422322-66.378457 93.578652s27.57451 91.956622 66.378457 91.956623z m0 0" fill="#FFFFFF" p-id="2285"></path><path d="M437.752714 294.959912c15.845985 0 28.572682-17.84233 28.572682-40.425978 0-22.458877-12.726697-40.425978-28.572682-40.425977s-28.572682 18.341416-28.572682 40.425977 12.726697 40.425978 28.572682 40.425978z m172.309492 5.614719c15.845985 0 28.572682-17.84233 28.572681-40.425977 0-22.458877-12.726697-40.425978-28.572681-40.425978s-28.572682 18.341416-28.572682 40.425978c-0.124772 22.084562 12.726697 40.425978 28.572682 40.425977z m0 0" fill="#161616" p-id="2286"></path><path d="M506.252287 950.634337c376.186183 0 268.882661-483.98879 268.882661-483.988791-77.358353 57.769221-172.309492 87.215304-268.882661 83.347387-96.573169 3.992689-191.399537-25.453393-268.757889-83.347387-77.358353-57.769221-107.303521 483.98879 268.757889 483.988791z m0 0" fill="#FAFAFB" p-id="2287"></path><path d="M270.18454 606.264896c-3.119288 34.811259-7.611064 87.963933-7.111977 115.039356 0 42.422322 26.576337 44.917753 86.341903 51.15633 59.765566 6.113805 47.537955-10.231266 47.537955-37.306689v-85.343731c35.809431 7.361521 72.367491 9.981723 108.80078 7.611064 138.621177 5.989034 272.625807-50.158158 365.45583-153.344219-7.111978-40.675521-19.46436-80.103326-36.807603-117.534787-73.365663 107.677836-198.012428 168.94066-328.149141 161.454368-129.887169 7.860607-254.284391-52.77836-328.149141-159.95711-17.0937 37.930547-29.570854 77.732667-37.306689 118.53296 36.807603 40.800292 80.602413 74.488607 129.388083 99.692458z m0 0" fill="#D53118" p-id="2288"></path><path d="M506.751373 486.608992c72.991349 1.871573 145.109297-15.721214 208.992324-51.15633v-4.11746c0-0.998172-8.234921-15.346899-31.69197-21.959791-56.521506-22.833191-116.91093-34.93603-177.79944-35.809431-60.139881 1.122944-119.531132 13.225783-175.304009 35.809431-25.578165 8.734008-35.809431 15.346899-35.80943 23.956135-0.374315 1.372487-0.374315 2.744974 0 4.117461 64.881199 35.310345 137.997319 52.154502 211.612525 49.159985z m0 0" fill="#F0B225" p-id="2289"></path></svg>